<?xml version="1.0" standalone="no"?>
<!DOCTYPE svg PUBLIC "-//W3C//DTD SVG 20010904//EN"
 "http://www.w3.org/TR/2001/REC-SVG-20010904/DTD/svg10.dtd">
<svg version="1.0" xmlns="http://www.w3.org/2000/svg"
 width="160.000000pt" height="170.000000pt" viewBox="0 0 160.000000 170.000000"
 preserveAspectRatio="xMidYMid meet">

<g transform="translate(0.000000,170.000000) scale(0.100000,-0.100000)"
fill="#fff" stroke="none">
<path d="M463 1524 c-16 -16 -49 -53 -75 -82 l-46 -52 -68 75 c-49 54 -74 75
-89 73 -19 -3 -20 -9 -20 -163 0 -158 0 -160 23 -163 22 -3 22 -2 22 107 0 63
4 112 10 116 6 4 33 -19 61 -49 28 -31 56 -56 63 -56 7 0 34 25 60 55 26 30
51 55 56 55 5 0 11 -51 12 -112 3 -109 4 -113 26 -116 l22 -3 0 159 c0 128 -3
162 -15 172 -12 10 -20 7 -42 -16z"/>
<path d="M788 1543 c-17 -4 -178 -292 -178 -318 0 -30 40 -15 65 25 l25 40 98
0 c53 0 102 -4 108 -8 6 -4 19 -22 28 -39 19 -38 56 -46 56 -13 0 27 -149 299
-169 309 -9 4 -23 6 -33 4z m57 -132 c29 -58 32 -70 19 -75 -25 -10 -122 -7
-129 4 -8 13 56 140 71 140 2 0 19 -31 39 -69z"/>
<path d="M1100 1530 c-12 -7 -15 -37 -15 -162 0 -141 1 -153 19 -156 27 -6 36
15 36 81 l0 57 90 0 c74 0 92 3 97 16 10 25 -16 34 -104 34 l-83 0 0 45 0 45
121 0 c119 0 120 0 117 23 -3 21 -7 22 -133 25 -71 1 -137 -2 -145 -8z"/>
<path d="M628 1003 c-3 -28 -3 -28 -93 -33 l-90 -5 -6 -165 c-6 -176 -15 -226
-56 -330 -30 -75 -44 -98 -91 -158 -49 -62 -40 -72 62 -72 l85 0 3 -58 3 -57
420 0 420 0 0 420 0 420 -86 3 -87 3 -6 30 c-8 39 -40 37 -44 -4 l-3 -27 -84
0 -84 0 -3 28 c-2 19 -9 27 -23 27 -14 0 -21 -8 -23 -27 l-3 -28 -84 0 -84 0
-3 27 c-4 39 -36 43 -40 6z m2 -113 c8 -34 34 -32 38 3 l3 27 84 0 84 0 3 -27
c2 -20 9 -28 23 -28 14 0 21 8 23 28 l3 27 85 0 c83 0 84 0 84 -25 0 -14 7
-28 15 -32 20 -7 27 0 29 29 1 21 6 23 69 26 l67 3 0 -66 0 -65 -375 0 -375 0
0 65 0 66 67 -3 c62 -3 68 -5 73 -28z m610 -187 c-1 -102 -63 -285 -126 -368
l-35 -45 -365 0 c-201 0 -364 3 -362 8 2 4 22 47 46 95 46 94 82 216 82 278 0
74 -29 69 386 69 l374 0 0 -37z m0 -403 l0 -140 -375 0 -375 0 0 40 0 40 299
0 298 0 47 50 c26 28 56 70 66 93 18 40 29 57 37 57 2 0 3 -63 3 -140z"/>
</g>
</svg>
